<svg xmlns="http://www.w3.org/2000/svg" viewBox="0 0 960 300" role="img" aria-label="MLB Standings logo">
  <defs>
    <linearGradient id="bg" x1="0" y1="0" x2="1" y2="1">
      <stop offset="0%" stop-color="#0b1f3a"/>
      <stop offset="100%" stop-color="#123d73"/>
    </linearGradient>
  </defs>
  <rect width="960" height="300" rx="54" fill="url(#bg)"/>
  <circle cx="132" cy="150" r="72" fill="#f7f2e8"/>
  <path d="M92 112c14 12 22 28 27 43s6 32 7 43" fill="none" stroke="#c62828" stroke-width="8" stroke-linecap="round"/>
  <path d="M172 112c-14 12-22 28-27 43s-6 32-7 43" fill="none" stroke="#c62828" stroke-width="8" stroke-linecap="round"/>
  <path d="M102 138c8 5 15 12 20 20M162 138c-8 5-15 12-20 20" fill="none" stroke="#c62828" stroke-width="6" stroke-linecap="round"/>
  <path d="M102 162c8-5 15-12 20-20M162 162c-8-5-15-12-20-20" fill="none" stroke="#c62828" stroke-width="6" stroke-linecap="round"/>
  <text x="245" y="145" font-family="Arial, sans-serif" font-size="58" font-weight="700" fill="#ffffff">MLB Standings</text>
  <text x="245" y="196" font-family="Arial, sans-serif" font-size="28" font-weight="400" fill="#c7d7f1">Home Assistant custom integration</text>
</svg>